<svg width="291" height="99" viewBox="0 0 291 99" fill="none" xmlns="http://www.w3.org/2000/svg">
<path d="M2.89844 50.5234V52H4.35156H8.14844H9.60156V50.5234V33.1328L15.3906 50.9922L15.7188 52H16.7734H20.6641H22.1406V50.5234V12.7422V11.2656H20.6641H16.8906H15.4141V12.7422V30.1328L9.64844 12.2969L9.32031 11.2656H8.24219H4.35156H2.89844V12.7422V50.5234ZM48.1019 11.2656C45.5941 11.2656 43.4613 12.1562 41.7269 13.9375C39.9456 15.6953 39.0784 17.8281 39.0784 20.3125V42.9766C39.0784 45.4609 39.9456 47.5938 41.7269 49.3516C43.4613 51.1328 45.5706 52 48.1019 52C50.5863 52 52.6956 51.1328 54.4769 49.3516C56.2347 47.5703 57.1253 45.4609 57.1253 42.9766V20.3125C57.1253 17.8281 56.2347 15.7188 54.4769 13.9375C52.6956 12.1562 50.5628 11.2656 48.1019 11.2656ZM48.1019 17.9922C48.7113 17.9922 49.2503 18.2266 49.7191 18.6719C50.1644 19.1406 50.3988 19.6797 50.3988 20.3125V42.9766C50.3988 43.6328 50.1644 44.1719 49.7191 44.6172C49.2269 45.0859 48.6878 45.2969 48.1019 45.2969C47.4691 45.2969 46.93 45.0859 46.4613 44.6172C45.9925 44.1719 45.7816 43.6328 45.7816 42.9766V20.3125C45.7816 19.6797 45.9925 19.1406 46.4613 18.6719C46.9066 18.2266 47.4456 17.9922 48.1019 17.9922ZM117.931 49.4219C119.36 47.7812 120.087 45.6484 120.087 42.9766V37.3047C120.087 35.6641 119.501 34.0938 118.376 32.5938C117.321 31.2344 115.798 29.8984 113.782 28.5859C112.845 28.0469 111.931 27.3438 111.063 26.5C110.642 26.1016 110.407 25.5391 110.407 24.8359V20.3125C110.407 19.5625 110.571 18.9531 110.946 18.5078C111.228 18.1797 111.626 17.9922 112.165 17.9922C112.587 17.9922 112.868 18.1328 113.032 18.3906C113.267 18.7891 113.384 19.4219 113.384 20.3125V23.1484V24.6016H114.837H118.634H120.087V23.1484V20.3125C120.087 17.6875 119.36 15.5312 117.931 13.8438C116.454 12.1328 114.532 11.2656 112.165 11.2656C109.728 11.2656 107.688 12.1562 106.095 13.8906C104.501 15.625 103.704 17.7578 103.704 20.3125V25.9609C103.704 27.3672 104.407 28.8906 105.813 30.4844C107.079 31.9375 108.907 33.4609 111.298 35.0312C111.532 35.2188 111.837 35.4531 112.165 35.7109C112.493 35.9688 112.774 36.25 113.009 36.5312C113.243 36.8828 113.384 37.5391 113.384 38.5V42.9766C113.384 43.8906 113.267 44.5234 113.032 44.8984C112.845 45.1797 112.563 45.2969 112.165 45.2969C111.649 45.2969 111.251 45.1328 110.946 44.7812C110.571 44.3594 110.407 43.7734 110.407 42.9766V40.1406V38.6641H108.931H105.157H103.704V40.1406V42.9766C103.704 45.5312 104.501 47.6641 106.095 49.3984C107.712 51.1328 109.728 52 112.165 52C114.532 52 116.454 51.1562 117.931 49.4219ZM141.314 17.9922V50.5234V52H142.79H146.564H148.04V50.5234V17.9922H152.236H153.689V16.5156V12.7422V11.2656H152.236H146.564H142.79H137.118H135.642V12.7422V16.5156V17.9922H137.118H141.314ZM174.798 52H176.252V50.5234V37.3047H177.142C178.033 37.3047 178.783 37.6328 179.439 38.2656C180.072 38.8984 180.4 39.6719 180.4 40.5625V48.25C180.4 48.9062 180.447 49.5859 180.517 50.2656C180.564 50.9688 180.752 51.5312 181.033 52H187.736C187.267 51.1562 187.056 49.8906 187.127 48.25V40.5625C187.127 38.0547 186.283 35.8516 184.595 33.9531C186.283 32.0781 187.127 29.875 187.127 27.3438V21.25C187.127 18.5078 186.142 16.1641 184.197 14.1953C182.228 12.25 179.884 11.2656 177.142 11.2656H174.798H171.002H169.548V12.7422V23.5703V32.0547V50.5234V52H171.002H174.798ZM176.252 17.9922H177.142C178.033 17.9922 178.783 18.3203 179.439 18.9531C180.072 19.5859 180.4 20.3594 180.4 21.25V27.3438C180.4 28.2344 180.072 29.0078 179.439 29.6406C178.783 30.2969 178.033 30.6016 177.142 30.6016H176.252V17.9922ZM212.736 11.2656C210.228 11.2656 208.096 12.1562 206.361 13.9375C204.58 15.6953 203.713 17.8281 203.713 20.3125V42.9766C203.713 45.4609 204.58 47.5938 206.361 49.3516C208.096 51.1328 210.205 52 212.736 52C215.221 52 217.33 51.1328 219.111 49.3516C220.869 47.5703 221.76 45.4609 221.76 42.9766V20.3125C221.76 17.8281 220.869 15.7188 219.111 13.9375C217.33 12.1562 215.197 11.2656 212.736 11.2656ZM212.736 17.9922C213.346 17.9922 213.885 18.2266 214.353 18.6719C214.799 19.1406 215.033 19.6797 215.033 20.3125V42.9766C215.033 43.6328 214.799 44.1719 214.353 44.6172C213.861 45.0859 213.322 45.2969 212.736 45.2969C212.103 45.2969 211.564 45.0859 211.096 44.6172C210.627 44.1719 210.416 43.6328 210.416 42.9766V20.3125C210.416 19.6797 210.627 19.1406 211.096 18.6719C211.541 18.2266 212.08 17.9922 212.736 17.9922ZM253.721 49.0703C255.666 47.1484 256.651 44.8047 256.651 42.0391V38.2422C256.651 36.7656 256.323 35.3359 255.69 33.9766C255.244 33.1328 254.729 32.3359 254.119 31.6328C254.729 30.9766 255.244 30.2031 255.69 29.3125C256.323 27.9531 256.651 26.5234 256.651 25.0234V21.25C256.651 18.4844 255.666 16.1406 253.721 14.1953C251.752 12.25 249.408 11.2656 246.69 11.2656H240.08H238.627V12.7422V21.25V25.0234V29.7578V33.5312V38.2422V42.0391V50.5234V52H240.08H246.69C249.408 52 251.752 51.0391 253.721 49.0703ZM246.69 45.2969H245.33V42.0391V38.2422V34.9844H246.69C247.58 34.9844 248.33 35.3125 248.987 35.9453C249.619 36.6016 249.948 37.3516 249.948 38.2422V42.0391C249.948 42.9297 249.619 43.7031 248.987 44.3359C248.33 44.9922 247.58 45.2969 246.69 45.2969ZM245.33 28.2812V25.0234V21.25V17.9922H246.69C247.58 17.9922 248.33 18.3203 248.987 18.9531C249.619 19.6094 249.948 20.3594 249.948 21.25V25.0234C249.948 25.9141 249.619 26.6875 248.987 27.3203C248.33 27.9766 247.58 28.2812 246.69 28.2812H245.33ZM274.854 11.2656H273.401V12.7422V50.5234V52H274.854H287.979H289.456V50.5234V46.75V45.2969H287.979H280.104V34.9844H284.206H285.659V33.5312V29.7578V28.2812H284.206H280.104V17.9922H287.979H289.456V16.5156V12.7422V11.2656H287.979H274.854Z" fill="black"/>
<path d="M3.96875 81.3906V91H3.125V68.25H10.2344C12.5573 68.25 14.3594 68.8385 15.6406 70.0156C16.9323 71.1823 17.5781 72.8073 17.5781 74.8906C17.5781 76.9531 16.9479 78.5469 15.6875 79.6719C14.4375 80.7969 12.6562 81.3698 10.3438 81.3906H3.96875ZM3.96875 80.5469H10.2344C12.2865 80.5469 13.8802 80.0521 15.0156 79.0625C16.1615 78.0729 16.7344 76.6927 16.7344 74.9219C16.7344 73.0885 16.1615 71.6615 15.0156 70.6406C13.8802 69.6094 12.2865 69.0938 10.2344 69.0938H3.96875V80.5469ZM29.5194 74.7031L28.4256 74.6094C26.9881 74.6094 25.785 75.0781 24.8162 76.0156C23.8475 76.9427 23.2121 78.2448 22.91 79.9219V91H22.0662V74.0938H22.91V77.6094C23.3683 76.4323 24.0558 75.5 24.9725 74.8125C25.8892 74.125 27.0402 73.7812 28.4256 73.7812C28.9152 73.7812 29.311 73.8385 29.6131 73.9531L29.5194 74.7031ZM33.9919 91H33.1481V74.0938H33.9919V91ZM32.7106 68.8125C32.7106 68.5729 32.794 68.3698 32.9606 68.2031C33.1273 68.026 33.3304 67.9375 33.57 67.9375C33.8096 67.9375 34.0127 68.026 34.1794 68.2031C34.3565 68.3698 34.445 68.5729 34.445 68.8125C34.445 69.0521 34.3565 69.2552 34.1794 69.4219C34.0127 69.5885 33.8096 69.6719 33.57 69.6719C33.3304 69.6719 33.1273 69.5885 32.9606 69.4219C32.794 69.2552 32.7106 69.0521 32.7106 68.8125ZM40.5425 78.0312C41.0946 76.7188 41.9071 75.6823 42.98 74.9219C44.0529 74.1615 45.2404 73.7812 46.5425 73.7812C48.355 73.7812 49.6987 74.2969 50.5737 75.3281C51.4592 76.349 51.9071 77.8958 51.9175 79.9688V91H51.0737V79.9375C51.0633 78.125 50.6935 76.7865 49.9644 75.9219C49.2352 75.0469 48.079 74.6094 46.4956 74.6094C45.0373 74.6094 43.7717 75.1302 42.6987 76.1719C41.6362 77.2031 40.9175 78.5365 40.5425 80.1719V91H39.6987V74.0938H40.5425V78.0312ZM59.2806 69.5312V74.0938H63.1244V74.9531H59.2806V86.9531C59.2806 88.151 59.4733 89.0365 59.8587 89.6094C60.2546 90.1823 60.9108 90.4688 61.8275 90.4688C62.2858 90.4688 62.8431 90.4219 63.4994 90.3281L63.64 91.125C63.2962 91.25 62.7077 91.3125 61.8744 91.3125C60.6452 91.3125 59.765 90.974 59.2337 90.2969C58.7025 89.6094 58.4317 88.5312 58.4212 87.0625V74.9531H55.2962V74.0938H58.4212V69.5312H59.2806ZM78.0969 86.8594C78.0969 84.8073 76.3469 83.4115 72.8469 82.6719C70.7427 82.224 69.2792 81.651 68.4563 80.9531C67.6333 80.2448 67.2219 79.276 67.2219 78.0469C67.2219 76.8073 67.7427 75.7865 68.7844 74.9844C69.8365 74.1823 71.201 73.7812 72.8781 73.7812C74.701 73.7812 76.1646 74.2188 77.2688 75.0938C78.3729 75.9583 78.925 77.1302 78.925 78.6094H78.0656C78.0656 77.474 77.5865 76.526 76.6281 75.7656C75.6698 75.0052 74.4198 74.625 72.8781 74.625C71.399 74.625 70.2271 74.9479 69.3625 75.5938C68.4979 76.2396 68.0656 77.0469 68.0656 78.0156C68.0656 78.776 68.2271 79.375 68.55 79.8125C68.8729 80.2396 69.399 80.6302 70.1281 80.9844C70.8573 81.3281 71.9198 81.6615 73.3156 81.9844C74.7115 82.3073 75.8156 82.6875 76.6281 83.125C77.4406 83.5625 78.0292 84.0833 78.3938 84.6875C78.7583 85.2812 78.9406 86.0104 78.9406 86.875C78.9406 88.2083 78.3938 89.2812 77.3 90.0938C76.2063 90.9062 74.774 91.3125 73.0031 91.3125C71.1073 91.3125 69.576 90.8854 68.4094 90.0312C67.2531 89.1667 66.675 88.0573 66.675 86.7031H67.5188C67.6021 87.8906 68.1229 88.8177 69.0813 89.4844C70.05 90.1406 71.3573 90.4688 73.0031 90.4688C74.5135 90.4688 75.7375 90.1198 76.675 89.4219C77.6229 88.7135 78.0969 87.8594 78.0969 86.8594ZM95.495 78.4688C94.5783 77.3438 93.9169 76.3333 93.5106 75.4375C93.1148 74.5417 92.9169 73.651 92.9169 72.7656C92.9169 71.2969 93.3544 70.125 94.2294 69.25C95.1148 68.3646 96.2658 67.9219 97.6825 67.9219C98.9846 67.9219 100.026 68.3073 100.808 69.0781C101.599 69.8385 101.995 70.8281 101.995 72.0469C101.995 73.4635 101.016 74.9844 99.0575 76.6094L96.62 78.5469L104.042 86.9688C105.24 85.3021 105.839 83.3542 105.839 81.125H106.698C106.698 83.5938 106.005 85.7604 104.62 87.625L107.589 91H106.542L104.089 88.25C102.047 90.2917 99.844 91.3125 97.4794 91.3125C95.3856 91.3125 93.7294 90.7917 92.5106 89.75C91.3023 88.6979 90.6981 87.2812 90.6981 85.5C90.6981 84.4792 90.9898 83.474 91.5731 82.4844C92.1669 81.4844 93.2085 80.3542 94.6981 79.0938L95.495 78.4688ZM97.4794 90.4688C98.6356 90.4688 99.7346 90.224 100.776 89.7344C101.828 89.2344 102.75 88.526 103.542 87.6094L95.995 79.0625L95.1825 79.7031C93.9533 80.7656 93.0367 81.7604 92.4325 82.6875C91.8388 83.6146 91.5419 84.5521 91.5419 85.5C91.5419 86.9792 92.0783 88.1771 93.1513 89.0938C94.2346 90.0104 95.6773 90.4688 97.4794 90.4688ZM93.7763 72.7344C93.7763 74.3802 94.5575 76.125 96.12 77.9688L98.8544 75.7969C100.365 74.5365 101.12 73.2865 101.12 72.0469C101.12 71.0885 100.797 70.3021 100.151 69.6875C99.5158 69.0729 98.6929 68.7656 97.6825 68.7656C96.5054 68.7656 95.5575 69.1354 94.8388 69.875C94.1304 70.6042 93.7763 71.5573 93.7763 72.7344ZM119.503 91V68.25H125.799C127.56 68.25 129.154 68.6667 130.581 69.5C132.008 70.3333 133.128 71.5052 133.94 73.0156C134.753 74.5156 135.169 76.1979 135.19 78.0625V81.0156C135.19 82.9115 134.789 84.6198 133.987 86.1406C133.195 87.6615 132.086 88.849 130.659 89.7031C129.232 90.5573 127.638 90.9896 125.878 91H119.503ZM120.346 69.0938V90.1562H125.799C127.393 90.1562 128.841 89.7708 130.143 89C131.456 88.2188 132.482 87.1354 133.221 85.75C133.961 84.3542 134.336 82.8073 134.346 81.1094V78.1875C134.346 76.4896 133.982 74.9479 133.253 73.5625C132.534 72.1771 131.523 71.0938 130.221 70.3125C128.93 69.5208 127.497 69.1146 125.924 69.0938H120.346ZM146.241 91.3125C144.876 91.3125 143.621 90.9479 142.475 90.2188C141.34 89.4792 140.449 88.4688 139.803 87.1875C139.157 85.9062 138.834 84.4844 138.834 82.9219V82.2188C138.834 80.6562 139.147 79.224 139.772 77.9219C140.397 76.6198 141.256 75.6042 142.35 74.875C143.444 74.1458 144.636 73.7812 145.928 73.7812C147.814 73.7812 149.355 74.4531 150.553 75.7969C151.751 77.1406 152.35 78.9062 152.35 81.0938V81.9844H139.678V82.9062C139.678 84.2812 139.965 85.5573 140.538 86.7344C141.121 87.901 141.918 88.8177 142.928 89.4844C143.949 90.151 145.053 90.4844 146.241 90.4844C147.376 90.4844 148.34 90.2969 149.131 89.9219C149.933 89.5365 150.642 88.9479 151.256 88.1562L151.85 88.5781C150.59 90.401 148.72 91.3125 146.241 91.3125ZM145.928 74.625C144.282 74.625 142.886 75.2396 141.741 76.4688C140.595 77.6875 139.923 79.2448 139.725 81.1406H151.506V80.9375C151.506 79.7917 151.261 78.7292 150.772 77.75C150.293 76.7604 149.626 75.9948 148.772 75.4531C147.928 74.901 146.98 74.625 145.928 74.625ZM166.869 86.8594C166.869 84.8073 165.119 83.4115 161.619 82.6719C159.515 82.224 158.052 81.651 157.229 80.9531C156.406 80.2448 155.994 79.276 155.994 78.0469C155.994 76.8073 156.515 75.7865 157.557 74.9844C158.609 74.1823 159.974 73.7812 161.651 73.7812C163.474 73.7812 164.937 74.2188 166.041 75.0938C167.145 75.9583 167.697 77.1302 167.697 78.6094H166.838C166.838 77.474 166.359 76.526 165.401 75.7656C164.442 75.0052 163.192 74.625 161.651 74.625C160.171 74.625 159 74.9479 158.135 75.5938C157.27 76.2396 156.838 77.0469 156.838 78.0156C156.838 78.776 157 79.375 157.322 79.8125C157.645 80.2396 158.171 80.6302 158.901 80.9844C159.63 81.3281 160.692 81.6615 162.088 81.9844C163.484 82.3073 164.588 82.6875 165.401 83.125C166.213 83.5625 166.802 84.0833 167.166 84.6875C167.531 85.2812 167.713 86.0104 167.713 86.875C167.713 88.2083 167.166 89.2812 166.072 90.0938C164.979 90.9062 163.546 91.3125 161.776 91.3125C159.88 91.3125 158.349 90.8854 157.182 90.0312C156.026 89.1667 155.447 88.0573 155.447 86.7031H156.291C156.375 87.8906 156.895 88.8177 157.854 89.4844C158.822 90.1406 160.13 90.4688 161.776 90.4688C163.286 90.4688 164.51 90.1198 165.447 89.4219C166.395 88.7135 166.869 87.8594 166.869 86.8594ZM173.592 91H172.748V74.0938H173.592V91ZM172.311 68.8125C172.311 68.5729 172.394 68.3698 172.561 68.2031C172.727 68.026 172.93 67.9375 173.17 67.9375C173.41 67.9375 173.613 68.026 173.779 68.2031C173.956 68.3698 174.045 68.5729 174.045 68.8125C174.045 69.0521 173.956 69.2552 173.779 69.4219C173.613 69.5885 173.41 69.6719 173.17 69.6719C172.93 69.6719 172.727 69.5885 172.561 69.4219C172.394 69.2552 172.311 69.0521 172.311 68.8125ZM178.502 82.375C178.502 79.6771 179.07 77.5729 180.205 76.0625C181.34 74.5417 182.898 73.7812 184.877 73.7812C186.137 73.7812 187.257 74.0729 188.236 74.6562C189.215 75.2292 190.002 76.0729 190.596 77.1875V74.0938H191.455V90.7031C191.455 92.9323 190.882 94.6719 189.736 95.9219C188.59 97.1823 187.033 97.8125 185.064 97.8125C183.929 97.8125 182.887 97.5677 181.939 97.0781C181.002 96.5885 180.2 95.8854 179.533 94.9688L180.127 94.4062C180.783 95.2396 181.502 95.875 182.283 96.3125C183.064 96.7604 183.981 96.9844 185.033 96.9844C186.773 96.9844 188.127 96.4531 189.096 95.3906C190.064 94.3385 190.564 92.849 190.596 90.9219V88.3281C190.012 89.2865 189.221 90.026 188.221 90.5469C187.231 91.0573 186.106 91.3125 184.846 91.3125C182.887 91.3125 181.34 90.5365 180.205 88.9844C179.07 87.4323 178.502 85.3021 178.502 82.5938V82.375ZM179.361 82.7031C179.361 85.1198 179.84 87.0208 180.799 88.4062C181.757 89.7812 183.101 90.4688 184.83 90.4688C186.257 90.4688 187.471 90.1406 188.471 89.4844C189.471 88.8177 190.179 87.8854 190.596 86.6875V79.0156C189.679 76.0885 187.768 74.625 184.861 74.625C183.122 74.625 181.768 75.3073 180.799 76.6719C179.84 78.0365 179.361 80.0469 179.361 82.7031ZM197.865 78.0312C198.417 76.7188 199.23 75.6823 200.303 74.9219C201.375 74.1615 202.563 73.7812 203.865 73.7812C205.678 73.7812 207.021 74.2969 207.896 75.3281C208.782 76.349 209.23 77.8958 209.24 79.9688V91H208.396V79.9375C208.386 78.125 208.016 76.7865 207.287 75.9219C206.558 75.0469 205.401 74.6094 203.818 74.6094C202.36 74.6094 201.094 75.1302 200.021 76.1719C198.959 77.2031 198.24 78.5365 197.865 80.1719V91H197.021V74.0938H197.865V78.0312ZM225.134 86.8594C225.134 84.8073 223.384 83.4115 219.884 82.6719C217.78 82.224 216.317 81.651 215.494 80.9531C214.671 80.2448 214.259 79.276 214.259 78.0469C214.259 76.8073 214.78 75.7865 215.822 74.9844C216.874 74.1823 218.239 73.7812 219.916 73.7812C221.739 73.7812 223.202 74.2188 224.306 75.0938C225.41 75.9583 225.962 77.1302 225.962 78.6094H225.103C225.103 77.474 224.624 76.526 223.666 75.7656C222.707 75.0052 221.457 74.625 219.916 74.625C218.436 74.625 217.265 74.9479 216.4 75.5938C215.535 76.2396 215.103 77.0469 215.103 78.0156C215.103 78.776 215.265 79.375 215.587 79.8125C215.91 80.2396 216.436 80.6302 217.166 80.9844C217.895 81.3281 218.957 81.6615 220.353 81.9844C221.749 82.3073 222.853 82.6875 223.666 83.125C224.478 83.5625 225.067 84.0833 225.431 84.6875C225.796 85.2812 225.978 86.0104 225.978 86.875C225.978 88.2083 225.431 89.2812 224.337 90.0938C223.244 90.9062 221.811 91.3125 220.041 91.3125C218.145 91.3125 216.614 90.8854 215.447 90.0312C214.291 89.1667 213.712 88.0573 213.712 86.7031H214.556C214.64 87.8906 215.16 88.8177 216.119 89.4844C217.087 90.1406 218.395 90.4688 220.041 90.4688C221.551 90.4688 222.775 90.1198 223.712 89.4219C224.66 88.7135 225.134 87.8594 225.134 86.8594Z" fill="black"/>
</svg>
