<svg width="498" height="129" viewBox="0 0 498 129" fill="none" xmlns="http://www.w3.org/2000/svg">
<path d="M89.6895 70.9082V73H91.748H97.127H99.1855V70.9082V46.2715L107.387 71.5723L107.852 73H109.346H114.857H116.949V70.9082V17.3848V15.293H114.857H109.512H107.42V17.3848V42.0215L99.252 16.7539L98.7871 15.293H97.2598H91.748H89.6895V17.3848V70.9082ZM153.728 15.293C150.175 15.293 147.153 16.5547 144.696 19.0781C142.173 21.5684 140.944 24.5898 140.944 28.1094V60.2168C140.944 63.7363 142.173 66.7578 144.696 69.248C147.153 71.7715 150.142 73 153.728 73C157.247 73 160.235 71.7715 162.759 69.248C165.249 66.7246 166.511 63.7363 166.511 60.2168V28.1094C166.511 24.5898 165.249 21.6016 162.759 19.0781C160.235 16.5547 157.214 15.293 153.728 15.293ZM153.728 24.8223C154.591 24.8223 155.355 25.1543 156.019 25.7852C156.65 26.4492 156.982 27.2129 156.982 28.1094V60.2168C156.982 61.1465 156.65 61.9102 156.019 62.541C155.321 63.2051 154.558 63.5039 153.728 63.5039C152.831 63.5039 152.067 63.2051 151.403 62.541C150.739 61.9102 150.441 61.1465 150.441 60.2168V28.1094C150.441 27.2129 150.739 26.4492 151.403 25.7852C152.034 25.1543 152.798 24.8223 153.728 24.8223ZM252.652 69.3477C254.677 67.0234 255.706 64.002 255.706 60.2168V52.1816C255.706 49.8574 254.876 47.6328 253.283 45.5078C251.788 43.582 249.63 41.6895 246.775 39.8301C245.447 39.0664 244.152 38.0703 242.923 36.875C242.326 36.3105 241.994 35.5137 241.994 34.5176V28.1094C241.994 27.0469 242.226 26.1836 242.757 25.5527C243.156 25.0879 243.72 24.8223 244.484 24.8223C245.081 24.8223 245.48 25.0215 245.712 25.3867C246.044 25.9512 246.21 26.8477 246.21 28.1094V32.127V34.1855H248.269H253.648H255.706V32.127V28.1094C255.706 24.3906 254.677 21.3359 252.652 18.9453C250.56 16.5215 247.837 15.293 244.484 15.293C241.031 15.293 238.142 16.5547 235.884 19.0117C233.626 21.4688 232.497 24.4902 232.497 28.1094V36.1113C232.497 38.1035 233.494 40.2617 235.486 42.5195C237.279 44.5781 239.869 46.7363 243.255 48.9609C243.587 49.2266 244.019 49.5586 244.484 49.9238C244.949 50.2891 245.347 50.6875 245.679 51.0859C246.011 51.584 246.21 52.5137 246.21 53.875V60.2168C246.21 61.5117 246.044 62.4082 245.712 62.9395C245.447 63.3379 245.048 63.5039 244.484 63.5039C243.753 63.5039 243.189 63.2715 242.757 62.7734C242.226 62.1758 241.994 61.3457 241.994 60.2168V56.1992V54.1074H239.902H234.556H232.497V56.1992V60.2168C232.497 63.8359 233.626 66.8574 235.884 69.3145C238.175 71.7715 241.031 73 244.484 73C247.837 73 250.56 71.8047 252.652 69.3477ZM285.778 24.8223V70.9082V73H287.87H293.215H295.307V70.9082V24.8223H301.25H303.309V22.7305V17.3848V15.293H301.25H293.215H287.87H279.834H277.743V17.3848V22.7305V24.8223H279.834H285.778ZM333.214 73H335.273V70.9082V52.1816H336.535C337.796 52.1816 338.859 52.6465 339.789 53.543C340.685 54.4395 341.15 55.5352 341.15 56.7969V67.6875C341.15 68.6172 341.216 69.5801 341.316 70.543C341.382 71.5391 341.648 72.3359 342.046 73H351.543C350.879 71.8047 350.58 70.0117 350.679 67.6875V56.7969C350.679 53.2441 349.484 50.123 347.093 47.4336C349.484 44.7773 350.679 41.6562 350.679 38.0703V29.4375C350.679 25.5527 349.285 22.2324 346.529 19.4434C343.74 16.6875 340.42 15.293 336.535 15.293H333.214H327.836H325.777V17.3848V32.7246V44.7441V70.9082V73H327.836H333.214ZM335.273 24.8223H336.535C337.796 24.8223 338.859 25.2871 339.789 26.1836C340.685 27.0801 341.15 28.1758 341.15 29.4375V38.0703C341.15 39.332 340.685 40.4277 339.789 41.3242C338.859 42.2539 337.796 42.6855 336.535 42.6855H335.273V24.8223ZM386.96 15.293C383.407 15.293 380.385 16.5547 377.928 19.0781C375.405 21.5684 374.176 24.5898 374.176 28.1094V60.2168C374.176 63.7363 375.405 66.7578 377.928 69.248C380.385 71.7715 383.374 73 386.96 73C390.479 73 393.467 71.7715 395.991 69.248C398.481 66.7246 399.743 63.7363 399.743 60.2168V28.1094C399.743 24.5898 398.481 21.6016 395.991 19.0781C393.467 16.5547 390.446 15.293 386.96 15.293ZM386.96 24.8223C387.823 24.8223 388.587 25.1543 389.251 25.7852C389.882 26.4492 390.214 27.2129 390.214 28.1094V60.2168C390.214 61.1465 389.882 61.9102 389.251 62.541C388.553 63.2051 387.79 63.5039 386.96 63.5039C386.063 63.5039 385.3 63.2051 384.635 62.541C383.971 61.9102 383.673 61.1465 383.673 60.2168V28.1094C383.673 27.2129 383.971 26.4492 384.635 25.7852C385.266 25.1543 386.03 24.8223 386.96 24.8223ZM445.021 68.8496C447.777 66.127 449.172 62.8066 449.172 58.8887V53.5098C449.172 51.418 448.707 49.3926 447.81 47.4668C447.18 46.2715 446.449 45.1426 445.586 44.1465C446.449 43.2168 447.18 42.1211 447.81 40.8594C448.707 38.9336 449.172 36.9082 449.172 34.7832V29.4375C449.172 25.5195 447.777 22.1992 445.021 19.4434C442.232 16.6875 438.912 15.293 435.06 15.293H425.697H423.639V17.3848V29.4375V34.7832V41.4902V46.8359V53.5098V58.8887V70.9082V73H425.697H435.06C438.912 73 442.232 71.6387 445.021 68.8496ZM435.06 63.5039H433.135V58.8887V53.5098V48.8945H435.06C436.322 48.8945 437.385 49.3594 438.314 50.2559C439.211 51.1855 439.676 52.248 439.676 53.5098V58.8887C439.676 60.1504 439.211 61.2461 438.314 62.1426C437.385 63.0723 436.322 63.5039 435.06 63.5039ZM433.135 39.3984V34.7832V29.4375V24.8223H435.06C436.322 24.8223 437.385 25.2871 438.314 26.1836C439.211 27.1133 439.676 28.1758 439.676 29.4375V34.7832C439.676 36.0449 439.211 37.1406 438.314 38.0371C437.385 38.9668 436.322 39.3984 435.06 39.3984H433.135ZM474.96 15.293H472.901V17.3848V70.9082V73H474.96H493.554H495.645V70.9082V65.5625V63.5039H493.554H482.397V48.8945H488.208H490.267V46.8359V41.4902V39.3984H488.208H482.397V24.8223H493.554H495.645V22.7305V17.3848V15.293H493.554H474.96Z" fill="black"/>
<path d="M91.7129 107.589V119H90.7109V91.9844H99.1533C101.912 91.9844 104.052 92.6833 105.573 94.0811C107.107 95.4665 107.874 97.3962 107.874 99.8701C107.874 102.319 107.126 104.212 105.629 105.548C104.145 106.884 102.029 107.564 99.2832 107.589H91.7129ZM91.7129 106.587H99.1533C101.59 106.587 103.483 105.999 104.831 104.824C106.192 103.649 106.872 102.01 106.872 99.9072C106.872 97.7301 106.192 96.0355 104.831 94.8232C103.483 93.5986 101.59 92.9863 99.1533 92.9863H91.7129V106.587ZM122.054 99.6475L120.755 99.5361C119.048 99.5361 117.62 100.093 116.469 101.206C115.319 102.307 114.564 103.853 114.206 105.845V119H113.204V98.9238H114.206V103.099C114.75 101.701 115.566 100.594 116.655 99.7773C117.743 98.9609 119.11 98.5527 120.755 98.5527C121.337 98.5527 121.807 98.6208 122.166 98.7568L122.054 99.6475ZM127.365 119H126.363V98.9238H127.365V119ZM125.844 92.6523C125.844 92.3678 125.943 92.1266 126.141 91.9287C126.339 91.7184 126.58 91.6133 126.864 91.6133C127.149 91.6133 127.39 91.7184 127.588 91.9287C127.798 92.1266 127.903 92.3678 127.903 92.6523C127.903 92.9368 127.798 93.1781 127.588 93.376C127.39 93.5739 127.149 93.6729 126.864 93.6729C126.58 93.6729 126.339 93.5739 126.141 93.376C125.943 93.1781 125.844 92.9368 125.844 92.6523ZM135.144 103.6C135.8 102.041 136.765 100.81 138.039 99.9072C139.313 99.0042 140.723 98.5527 142.269 98.5527C144.422 98.5527 146.017 99.165 147.056 100.39C148.108 101.602 148.64 103.439 148.652 105.9V119H147.65V105.863C147.638 103.711 147.199 102.121 146.333 101.095C145.467 100.056 144.094 99.5361 142.214 99.5361C140.482 99.5361 138.979 100.155 137.705 101.392C136.443 102.616 135.59 104.2 135.144 106.142V119H134.142V98.9238H135.144V103.6ZM157.396 93.5059V98.9238H161.96V99.9443H157.396V114.194C157.396 115.617 157.625 116.668 158.082 117.349C158.552 118.029 159.332 118.369 160.42 118.369C160.964 118.369 161.626 118.313 162.406 118.202L162.573 119.148C162.164 119.297 161.465 119.371 160.476 119.371C159.016 119.371 157.971 118.969 157.34 118.165C156.709 117.349 156.388 116.068 156.375 114.324V99.9443H152.664V98.9238H156.375V93.5059H157.396ZM179.74 114.083C179.74 111.646 177.662 109.989 173.506 109.11C171.007 108.578 169.269 107.898 168.292 107.069C167.315 106.228 166.826 105.078 166.826 103.618C166.826 102.146 167.444 100.934 168.681 99.9814C169.931 99.029 171.551 98.5527 173.543 98.5527C175.707 98.5527 177.445 99.0723 178.757 100.111C180.068 101.138 180.723 102.53 180.723 104.286H179.703C179.703 102.938 179.134 101.812 177.996 100.909C176.858 100.006 175.373 99.5547 173.543 99.5547C171.786 99.5547 170.395 99.9382 169.368 100.705C168.341 101.472 167.828 102.431 167.828 103.581C167.828 104.484 168.02 105.195 168.403 105.715C168.787 106.222 169.411 106.686 170.277 107.106C171.143 107.515 172.405 107.91 174.062 108.294C175.72 108.677 177.031 109.129 177.996 109.648C178.961 110.168 179.66 110.786 180.093 111.504C180.526 112.209 180.742 113.075 180.742 114.102C180.742 115.685 180.093 116.959 178.794 117.924C177.495 118.889 175.794 119.371 173.691 119.371C171.44 119.371 169.622 118.864 168.236 117.85C166.863 116.823 166.177 115.506 166.177 113.897H167.179C167.277 115.308 167.896 116.409 169.034 117.2C170.184 117.979 171.737 118.369 173.691 118.369C175.485 118.369 176.938 117.955 178.052 117.126C179.177 116.285 179.74 115.271 179.74 114.083ZM200.4 104.119C199.312 102.783 198.526 101.583 198.044 100.52C197.574 99.4557 197.339 98.3981 197.339 97.3467C197.339 95.6025 197.858 94.2109 198.897 93.1719C199.949 92.1204 201.316 91.5947 202.998 91.5947C204.544 91.5947 205.781 92.0524 206.709 92.9678C207.649 93.8708 208.119 95.0459 208.119 96.4932C208.119 98.1755 206.956 99.9814 204.631 101.911L201.736 104.212L210.55 114.213C211.972 112.234 212.684 109.921 212.684 107.273H213.704C213.704 110.205 212.881 112.778 211.236 114.992L214.762 119H213.518L210.605 115.734C208.181 118.159 205.565 119.371 202.757 119.371C200.27 119.371 198.304 118.753 196.856 117.516C195.421 116.266 194.704 114.584 194.704 112.469C194.704 111.257 195.05 110.063 195.743 108.888C196.448 107.7 197.685 106.358 199.454 104.861L200.4 104.119ZM202.757 118.369C204.13 118.369 205.435 118.078 206.672 117.497C207.921 116.903 209.016 116.062 209.956 114.974L200.994 104.824L200.029 105.585C198.57 106.847 197.481 108.028 196.764 109.129C196.059 110.23 195.706 111.343 195.706 112.469C195.706 114.225 196.343 115.648 197.617 116.736C198.904 117.825 200.617 118.369 202.757 118.369ZM198.359 97.3096C198.359 99.264 199.287 101.336 201.143 103.525L204.39 100.946C206.183 99.4495 207.08 97.9652 207.08 96.4932C207.08 95.3551 206.697 94.4212 205.93 93.6914C205.175 92.9616 204.198 92.5967 202.998 92.5967C201.6 92.5967 200.475 93.0358 199.621 93.9141C198.78 94.7799 198.359 95.9118 198.359 97.3096ZM228.909 119V91.9844H236.387C238.477 91.9844 240.37 92.4792 242.064 93.4688C243.759 94.4583 245.089 95.8499 246.054 97.6436C247.019 99.4248 247.513 101.423 247.538 103.637V107.144C247.538 109.395 247.062 111.424 246.109 113.229C245.169 115.035 243.852 116.446 242.157 117.46C240.463 118.474 238.57 118.988 236.48 119H228.909ZM229.911 92.9863V117.998H236.387C238.279 117.998 239.999 117.54 241.545 116.625C243.104 115.697 244.322 114.411 245.2 112.766C246.078 111.108 246.524 109.271 246.536 107.255V103.785C246.536 101.769 246.103 99.9382 245.237 98.293C244.384 96.6478 243.184 95.3613 241.638 94.4336C240.104 93.4935 238.403 93.0111 236.535 92.9863H229.911ZM260.661 119.371C259.04 119.371 257.55 118.938 256.189 118.072C254.841 117.194 253.783 115.994 253.016 114.473C252.249 112.951 251.866 111.263 251.866 109.407V108.572C251.866 106.717 252.237 105.016 252.979 103.47C253.721 101.924 254.742 100.717 256.041 99.8516C257.339 98.9857 258.756 98.5527 260.29 98.5527C262.529 98.5527 264.359 99.3506 265.782 100.946C267.204 102.542 267.916 104.639 267.916 107.236V108.294H252.868V109.389C252.868 111.021 253.208 112.537 253.888 113.935C254.581 115.32 255.527 116.409 256.727 117.2C257.939 117.992 259.251 118.388 260.661 118.388C262.009 118.388 263.153 118.165 264.093 117.72C265.046 117.262 265.887 116.563 266.617 115.623L267.322 116.124C265.825 118.289 263.605 119.371 260.661 119.371ZM260.29 99.5547C258.335 99.5547 256.678 100.285 255.317 101.744C253.956 103.191 253.158 105.041 252.923 107.292H266.914V107.051C266.914 105.69 266.623 104.428 266.042 103.266C265.473 102.09 264.681 101.181 263.667 100.538C262.665 99.8825 261.539 99.5547 260.29 99.5547ZM285.157 114.083C285.157 111.646 283.079 109.989 278.923 109.11C276.424 108.578 274.686 107.898 273.709 107.069C272.732 106.228 272.243 105.078 272.243 103.618C272.243 102.146 272.862 100.934 274.099 99.9814C275.348 99.029 276.969 98.5527 278.96 98.5527C281.125 98.5527 282.863 99.0723 284.174 100.111C285.485 101.138 286.141 102.53 286.141 104.286H285.12C285.12 102.938 284.551 101.812 283.413 100.909C282.275 100.006 280.791 99.5547 278.96 99.5547C277.204 99.5547 275.812 99.9382 274.785 100.705C273.759 101.472 273.245 102.431 273.245 103.581C273.245 104.484 273.437 105.195 273.82 105.715C274.204 106.222 274.829 106.686 275.694 107.106C276.56 107.515 277.822 107.91 279.48 108.294C281.137 108.677 282.448 109.129 283.413 109.648C284.378 110.168 285.077 110.786 285.51 111.504C285.943 112.209 286.159 113.075 286.159 114.102C286.159 115.685 285.51 116.959 284.211 117.924C282.912 118.889 281.211 119.371 279.109 119.371C276.857 119.371 275.039 118.864 273.653 117.85C272.28 116.823 271.594 115.506 271.594 113.897H272.596C272.695 115.308 273.313 116.409 274.451 117.2C275.602 117.979 277.154 118.369 279.109 118.369C280.902 118.369 282.356 117.955 283.469 117.126C284.595 116.285 285.157 115.271 285.157 114.083ZM293.14 119H292.138V98.9238H293.14V119ZM291.619 92.6523C291.619 92.3678 291.718 92.1266 291.916 91.9287C292.114 91.7184 292.355 91.6133 292.639 91.6133C292.924 91.6133 293.165 91.7184 293.363 91.9287C293.573 92.1266 293.678 92.3678 293.678 92.6523C293.678 92.9368 293.573 93.1781 293.363 93.376C293.165 93.5739 292.924 93.6729 292.639 93.6729C292.355 93.6729 292.114 93.5739 291.916 93.376C291.718 93.1781 291.619 92.9368 291.619 92.6523ZM298.971 108.758C298.971 105.554 299.645 103.055 300.993 101.262C302.342 99.4557 304.191 98.5527 306.541 98.5527C308.038 98.5527 309.368 98.8991 310.531 99.5918C311.693 100.272 312.627 101.274 313.332 102.598V98.9238H314.353V118.647C314.353 121.295 313.672 123.36 312.312 124.845C310.951 126.341 309.102 127.09 306.764 127.09C305.416 127.09 304.179 126.799 303.053 126.218C301.94 125.636 300.987 124.801 300.196 123.713L300.901 123.045C301.68 124.035 302.533 124.789 303.461 125.309C304.389 125.84 305.477 126.106 306.727 126.106C308.793 126.106 310.401 125.476 311.551 124.214C312.701 122.965 313.295 121.196 313.332 118.907V115.827C312.64 116.965 311.699 117.843 310.512 118.462C309.337 119.068 308.001 119.371 306.504 119.371C304.179 119.371 302.342 118.45 300.993 116.606C299.645 114.763 298.971 112.234 298.971 109.018V108.758ZM299.991 109.147C299.991 112.017 300.56 114.275 301.699 115.92C302.837 117.553 304.432 118.369 306.486 118.369C308.18 118.369 309.621 117.979 310.809 117.2C311.996 116.409 312.838 115.301 313.332 113.879V104.769C312.244 101.293 309.974 99.5547 306.523 99.5547C304.457 99.5547 302.849 100.365 301.699 101.985C300.56 103.606 299.991 105.993 299.991 109.147ZM321.965 103.6C322.62 102.041 323.585 100.81 324.859 99.9072C326.133 99.0042 327.543 98.5527 329.09 98.5527C331.242 98.5527 332.838 99.165 333.877 100.39C334.928 101.602 335.46 103.439 335.473 105.9V119H334.471V105.863C334.458 103.711 334.019 102.121 333.153 101.095C332.287 100.056 330.914 99.5361 329.034 99.5361C327.302 99.5361 325.799 100.155 324.525 101.392C323.264 102.616 322.41 104.2 321.965 106.142V119H320.963V98.9238H321.965V103.6ZM354.347 114.083C354.347 111.646 352.269 109.989 348.113 109.11C345.614 108.578 343.876 107.898 342.899 107.069C341.922 106.228 341.433 105.078 341.433 103.618C341.433 102.146 342.052 100.934 343.288 99.9814C344.538 99.029 346.158 98.5527 348.15 98.5527C350.315 98.5527 352.052 99.0723 353.364 100.111C354.675 101.138 355.33 102.53 355.33 104.286H354.31C354.31 102.938 353.741 101.812 352.603 100.909C351.465 100.006 349.981 99.5547 348.15 99.5547C346.393 99.5547 345.002 99.9382 343.975 100.705C342.948 101.472 342.435 102.431 342.435 103.581C342.435 104.484 342.627 105.195 343.01 105.715C343.394 106.222 344.018 106.686 344.884 107.106C345.75 107.515 347.012 107.91 348.669 108.294C350.327 108.677 351.638 109.129 352.603 109.648C353.568 110.168 354.267 110.786 354.7 111.504C355.133 112.209 355.349 113.075 355.349 114.102C355.349 115.685 354.7 116.959 353.401 117.924C352.102 118.889 350.401 119.371 348.298 119.371C346.047 119.371 344.229 118.864 342.843 117.85C341.47 116.823 340.784 115.506 340.784 113.897H341.786C341.885 115.308 342.503 116.409 343.641 117.2C344.791 117.979 346.344 118.369 348.298 118.369C350.092 118.369 351.545 117.955 352.659 117.126C353.784 116.285 354.347 115.271 354.347 114.083Z" fill="black"/>
<path d="M19.6611 56.708V58H20.9326H24.2549H25.5264V56.708V41.4912L30.5918 57.1182L30.8789 58H31.8018H35.2061H36.498V56.708V23.6494V22.3574H35.2061H31.9043H30.6123V23.6494V38.8662L25.5674 23.2598L25.2803 22.3574H24.3369H20.9326H19.6611V23.6494V56.708ZM31.7812 108.744C33.0322 107.309 33.668 105.442 33.668 103.104V98.1416C33.668 96.7061 33.1553 95.332 32.1709 94.0195C31.248 92.8301 29.915 91.6611 28.1514 90.5127C27.3311 90.041 26.5312 89.4258 25.7725 88.6875C25.4033 88.3389 25.1982 87.8467 25.1982 87.2314V83.2734C25.1982 82.6172 25.3418 82.084 25.6699 81.6943C25.916 81.4072 26.2646 81.2432 26.7363 81.2432C27.1055 81.2432 27.3516 81.3662 27.4951 81.5918C27.7002 81.9404 27.8027 82.4941 27.8027 83.2734V85.7549V87.0264H29.0742H32.3965H33.668V85.7549V83.2734C33.668 80.9766 33.0322 79.0898 31.7812 77.6133C30.4893 76.1162 28.8076 75.3574 26.7363 75.3574C24.6035 75.3574 22.8193 76.1367 21.4248 77.6543C20.0303 79.1719 19.333 81.0381 19.333 83.2734V88.2158C19.333 89.4463 19.9482 90.7793 21.1787 92.1738C22.2861 93.4453 23.8857 94.7783 25.9775 96.1523C26.1826 96.3164 26.4492 96.5215 26.7363 96.7471C27.0234 96.9727 27.2695 97.2188 27.4746 97.4648C27.6797 97.7725 27.8027 98.3467 27.8027 99.1875V103.104C27.8027 103.904 27.7002 104.458 27.4951 104.786C27.3311 105.032 27.085 105.135 26.7363 105.135C26.2852 105.135 25.9365 104.991 25.6699 104.684C25.3418 104.314 25.1982 103.802 25.1982 103.104V100.623V99.3311H23.9062H20.6045H19.333V100.623V103.104C19.333 105.34 20.0303 107.206 21.4248 108.724C22.8398 110.241 24.6035 111 26.7363 111C28.8076 111 30.4893 110.262 31.7812 108.744Z" fill="black"/>
<rect x="3.5" y="5.5" width="48" height="120" stroke="black" stroke-width="7"/>
</svg>
